<svg xmlns="http://www.w3.org/2000/svg" width="27" height="19" viewBox="0 0 27 19">
    <path data-name="패스 15569" d="M3.271 9.542A2.271 2.271 0 1 0 1 7.271a2.271 2.271 0 0 0 2.271 2.271z" transform="translate(-.5 -3.364)" style="fill:none;stroke:#222;stroke-linecap:round;stroke-linejoin:round;stroke-miterlimit:10"/>
    <path data-name="패스 15570" d="M21.271 9.542A2.271 2.271 0 1 0 19 7.271a2.271 2.271 0 0 0 2.271 2.271z" transform="translate(2.958 -3.364)" style="fill:none;stroke:#222;stroke-linecap:round;stroke-linejoin:round;stroke-miterlimit:10"/>
    <path data-name="패스 15571" d="M20.051 7H15" transform="translate(1.907 -3.093)" style="fill:none;stroke:#222;stroke-linecap:round;stroke-linejoin:round;stroke-miterlimit:10"/>
    <path data-name="패스 15572" d="M10.051 7H5" transform="translate(.042 -3.093)" style="fill:none;stroke:#222;stroke-linecap:round;stroke-linejoin:round;stroke-miterlimit:10"/>
    <path data-name="패스 15573" d="M8.178 16.7v2.271a1.679 1.679 0 0 1-1.011 1.544 1.59 1.59 0 0 1-.693.159H4.2a1.7 1.7 0 0 1-1.7-1.7V16.7A1.7 1.7 0 0 1 4.2 15h2.274a1.7 1.7 0 0 1 1.704 1.7z" transform="translate(.703 -2.178)" style="fill:none;stroke:#222;stroke-linecap:round;stroke-linejoin:round;stroke-miterlimit:10"/>
    <path data-name="패스 15574" d="M22.178 16.7v2.271a1.7 1.7 0 0 1-1.7 1.7H18.2a1.59 1.59 0 0 1-.693-.159 1.679 1.679 0 0 1-1.007-1.538V16.7a1.7 1.7 0 0 1 1.7-1.7h2.271a1.7 1.7 0 0 1 1.707 1.7z" transform="translate(1.619 -2.178)" style="fill:none;stroke:#222;stroke-linecap:round;stroke-linejoin:round;stroke-miterlimit:10"/>
    <path data-name="패스 15575" d="M15.813 5.7v3.41a1.716 1.716 0 0 1-1.7 1.7H10.7A1.716 1.716 0 0 1 9 9.11V5.7A1.716 1.716 0 0 1 10.7 4h3.41a1.716 1.716 0 0 1 1.703 1.7z" transform="translate(1.093 -3.5)" style="fill:none;stroke:#222;stroke-linecap:round;stroke-linejoin:round;stroke-miterlimit:10"/>
    <path data-name="패스 15576" d="M15 7.73a8.523 8.523 0 0 1 4.269 7.6 4.944 4.944 0 0 1-.032.561" transform="translate(1.907 -3.066)" style="fill:none;stroke:#222;stroke-linecap:round;stroke-linejoin:round;stroke-miterlimit:10"/>
    <path data-name="패스 15577" d="M5.032 15.889A4.945 4.945 0 0 1 5 15.328a8.523 8.523 0 0 1 4.269-7.6" transform="translate(.824 -3.066)" style="fill:none;stroke:#222;stroke-linecap:round;stroke-linejoin:round;stroke-miterlimit:10"/>
</svg>
