<svg xmlns="http://www.w3.org/2000/svg" width="18" height="13.503" viewBox="0 0 18 13.503">
    <path data-name="Icon ionic-logo-youtube" d="M17.883 7.482a2.733 2.733 0 0 0-2.6-2.855c-1.95-.092-3.937-.127-5.966-.127h-.632c-2.025 0-4.015.035-5.963.127a2.739 2.739 0 0 0-2.6 2.862C.035 8.74 0 9.992 0 11.244s.035 2.5.12 3.759a2.742 2.742 0 0 0 2.6 2.866c2.046.095 4.145.137 6.28.134s4.23-.035 6.28-.134A2.743 2.743 0 0 0 17.879 15c.084-1.255.123-2.507.12-3.762s-.032-2.501-.116-3.756zm-10.6 7.212v-6.91l5.1 3.453z" transform="translate(0 -4.5)" style="fill:#fff"/>
</svg>
