<svg xmlns="http://www.w3.org/2000/svg" width="31" height="31" viewBox="0 0 31 31">
    <path data-name="패스 15303" d="M14.579 17.534a1.657 1.657 0 0 0-.414 0 5.652 5.652 0 1 1 .414 0z" transform="translate(1.128 .615)" style="fill:#222"/>
    <path data-name="패스 15304" d="M25.48 21.353a14.969 14.969 0 0 1-20.22 0 5.518 5.518 0 0 1 2.655-3.87 14.6 14.6 0 0 1 14.91 0 5.518 5.518 0 0 1 2.655 3.87z" transform="translate(.13 5.217)" style="fill:#222"/>
    <path data-name="패스 15305" d="M17 32A15 15 0 1 0 2 17a15 15 0 0 0 15 15z" style="fill:none;stroke:#222;stroke-linecap:round;stroke-linejoin:round" transform="translate(-1.5 -1.5)"/>
</svg>
