<svg xmlns="http://www.w3.org/2000/svg" width="25" height="25" viewBox="0 0 25 25">
    <path data-name="패스 15594" d="M8.672 15.029a2.5 2.5 0 0 0 2.442 2.563h2.761a2.187 2.187 0 0 0 2.134-2.233 1.925 1.925 0 0 0-1.452-2.123L10.124 11.7a1.925 1.925 0 0 1-1.452-2.127 2.187 2.187 0 0 1 2.134-2.233h2.761A2.5 2.5 0 0 1 16.01 9.9" transform="translate(.168 .034)" style="fill:none;stroke:#222;stroke-linecap:round;stroke-linejoin:round"/>
    <path data-name="패스 15595" d="M12 6v13.2" transform="translate(.5 -.1)" style="fill:none;stroke:#222;stroke-linecap:round;stroke-linejoin:round"/>
    <path data-name="패스 15596" d="M12 22A10 10 0 1 0 2 12a10 10 0 0 0 10 10z" transform="translate(.5 .5)" style="fill:none;stroke:#222;stroke-linecap:round;stroke-linejoin:round"/>
    <path data-name="패스 15600" d="M14 26A12 12 0 1 0 2 14a12 12 0 0 0 12 12z" transform="translate(-1.5 -1.5)" style="fill:none;stroke:#222;stroke-linecap:round;stroke-linejoin:round"/>
</svg>
