<svg xmlns="http://www.w3.org/2000/svg" width="14" height="15" viewBox="0 0 14 15">
    <path data-name="패스 15495" d="M7 14.756A7.117 7.117 0 0 1 2.058 12.8 6.525 6.525 0 0 1 0 8.046a6.868 6.868 0 0 1 7-6.705 8.34 8.34 0 0 1 2.309.328.54.54 0 0 1-.3 1.038A7.266 7.266 0 0 0 7 2.422a5.786 5.786 0 0 0-5.923 5.625 5.452 5.452 0 0 0 1.723 3.97A6.052 6.052 0 0 0 7 13.676a5.787 5.787 0 0 0 5.923-5.624 5.408 5.408 0 0 0-.988-3.115.539.539 0 1 1 .882-.62A6.485 6.485 0 0 1 14 8.052a6.866 6.866 0 0 1-7 6.704z" transform="translate(0 .244)" style="fill:#222"/>
    <path data-name="선 62" d="M2.026 2.469a.5.5 0 0 1-.348-.141L-.349.359a.5.5 0 0 1-.01-.707.5.5 0 0 1 .707-.01L2.374 1.61a.5.5 0 0 1-.349.859z" transform="translate(8.048 .5)" style="fill:#222"/>
    <path data-name="선 63" d="M0 1.956a.5.5 0 0 1-.426-.238.5.5 0 0 1 .164-.688L2.1-.426a.5.5 0 0 1 .688.163.5.5 0 0 1-.163.688L.262 1.882A.5.5 0 0 1 0 1.956z" transform="translate(7.698 2.469)" style="fill:#222"/>
</svg>
